<svg xmlns="http://www.w3.org/2000/svg" width="32" height="32" version="1.1" viewBox="0 0 32 32"><title>mail-envelope-open</title><path d="M16.818 21.991l-1.697 0.009h3.378l0.020-0.018-0.099 0.001 6.579-5.883v-8.091c0-0.557-0.455-1.009-1-1.009h-15c-0.552 0-1 0.444-1 1.002v8.198l6.551 5.78 2.267 0.011zM13.091 6l3.409-3 3.409 3h4.093c1.107 0 1.997 0.895 1.997 2v3.36l3 2.64v14.006c0 1.1-0.897 1.994-2.004 1.994h-20.993c-1.114 0-2.004-0.893-2.004-1.994v-14.006l3-2.64v-3.36c0-1.112 0.894-2 1.997-2h4.093zM18.428 6l-1.928-1.7-1.928 1.7h3.856zM26 12.677v2.656l1.5-1.333-1.5-1.323zM7 15.333v-2.656l-1.5 1.323 1.5 1.333zM13.5 23l-7 6h20l-7-6h-6zM27.685 28.725v0 0c0.194-0.183 0.315-0.442 0.315-0.725v-13l-8 7.017 7.685 6.708zM5.315 28.725l7.685-6.708-8-7.017v13c0 0.283 0.121 0.542 0.315 0.725v0 0z"/></svg>